<?xml version="1.0" encoding="utf-8"?><!-- Uploaded to: SVG Repo, www.svgrepo.com, Generator: SVG Repo Mixer Tools -->
<svg width="800px" height="800px" viewBox="0 0 24 24" fill="none" xmlns="http://www.w3.org/2000/svg">
<path d="M3 3L6 6M6 6L10 10M6 6V18C6 19.6569 7.34315 21 9 21H15C16.6569 21 18 19.6569 18 18M6 6H4M10 10L14 14M10 10V17M14 14L18 18M14 14V17M18 18L21 21M18 6V12.3906M18 6H16M18 6H20M16 6L15.4558 4.36754C15.1836 3.55086 14.4193 3 13.5585 3H10.4415C9.94239 3 9.47572 3.18519 9.11861 3.5M16 6H11.6133" stroke="#000000" stroke-width="2" stroke-linecap="round" stroke-linejoin="round"/>
</svg>